<svg width="23" height="23" viewBox="0 0 23 23" fill="none" xmlns="http://www.w3.org/2000/svg">
<path d="M11.5001 11.8645C10.4185 11.8645 9.36114 11.5438 8.46181 10.9429C7.56248 10.3419 6.86153 9.48784 6.44762 8.48855C6.0337 7.48927 5.9254 6.38969 6.13641 5.32885C6.34742 4.26802 6.86827 3.29358 7.63309 2.52876C8.39791 1.76395 9.37235 1.2431 10.4332 1.03208C11.494 0.821072 12.5936 0.929371 13.5929 1.34329C14.5922 1.7572 15.4463 2.45815 16.0472 3.35748C16.6481 4.25681 16.9688 5.31414 16.9688 6.39575C16.9688 7.84616 16.3927 9.23715 15.3671 10.2627C14.3415 11.2883 12.9505 11.8645 11.5001 11.8645ZM11.5001 3.1145C10.8511 3.1145 10.2167 3.30695 9.67712 3.66749C9.13752 4.02804 8.71695 4.5405 8.4686 5.14007C8.22025 5.73964 8.15527 6.39939 8.28188 7.03589C8.40849 7.67239 8.721 8.25706 9.17989 8.71595C9.63878 9.17484 10.2234 9.48735 10.8599 9.61396C11.4964 9.74056 12.1562 9.67558 12.7558 9.42723C13.3553 9.17888 13.8678 8.75832 14.2283 8.21872C14.5889 7.67912 14.7813 7.04472 14.7813 6.39575C14.7813 5.52551 14.4356 4.69091 13.8203 4.07556C13.2049 3.46021 12.3703 3.1145 11.5001 3.1145ZM21.7084 22.0728C21.4195 22.0691 21.1435 21.9526 20.9392 21.7483C20.7349 21.544 20.6184 21.268 20.6147 20.9791C20.6147 18.1353 19.0688 16.2395 11.5001 16.2395C3.93133 16.2395 2.3855 18.1353 2.3855 20.9791C2.3855 21.2692 2.27026 21.5474 2.06515 21.7525C1.86003 21.9576 1.58183 22.0728 1.29175 22.0728C1.00167 22.0728 0.723468 21.9576 0.51835 21.7525C0.313232 21.5474 0.197998 21.2692 0.197998 20.9791C0.197998 14.052 8.11675 14.052 11.5001 14.052C14.8834 14.052 22.8022 14.052 22.8022 20.9791C22.7984 21.268 22.6819 21.544 22.4776 21.7483C22.2733 21.9526 21.9973 22.0691 21.7084 22.0728Z" fill="black"/>
</svg>
